<?xml version="1.0" encoding="utf-8"?>
<!-- Generator: Adobe Illustrator 15.0.0, SVG Export Plug-In . SVG Version: 6.00 Build 0)  -->
<!DOCTYPE svg PUBLIC "-//W3C//DTD SVG 1.1//EN" "http://www.w3.org/Graphics/SVG/1.1/DTD/svg11.dtd">
<svg version="1.1" id="Layer_1" xmlns="http://www.w3.org/2000/svg" xmlns:xlink="http://www.w3.org/1999/xlink" x="0px" y="0px"
	 width="373.549px" height="63.079px" viewBox="0 0 373.549 63.079" enable-background="new 0 0 373.549 63.079"
	 xml:space="preserve">
<g>
	<g>
		<path fill="#010101" d="M21.706,61.931H0L10.693,1.148h20.934l-2.129,12.104h-8.359l-2.036,11.574h7.868l-2.036,11.573h-7.868
			l-2.363,13.429h9.132L21.706,61.931z"/>
		<path fill="#010101" d="M56.192,44.085c-0.736,4.182-1.19,6.625-1.36,7.332c-0.805,3.24-1.967,5.654-3.487,7.244
			c-1.521,1.592-3.306,2.623-5.356,3.094c-1.363,0.293-3.474,0.441-6.33,0.441H23.853L34.547,1.414h9.413
			c5.058,0,8.642,0.191,10.752,0.574c2.11,0.384,3.783,1.458,5.018,3.225c1.218,1.59,1.826,3.593,1.823,6.007
			c0.001,1.59-0.34,4.329-1.024,8.216L56.192,44.085z M43.734,43.025l4.678-26.593c0.363-2.062,0.295-3.342-0.202-3.843
			c-0.499-0.5-1.473-0.751-2.924-0.751l-7.01,39.844c2.201,0,3.603-0.912,4.205-2.738C42.788,48.003,43.205,46.028,43.734,43.025z"
			/>
		<path fill="#010101" d="M95.855,61.931H84.896l7.228-41.081L79.769,61.931h-7.797l1.803-40.198l-7.072,40.198H55.744L66.438,1.148
			h16.859c-0.293,4.594-0.527,8.188-0.702,10.779c-0.5,7.893-0.851,13.753-1.056,17.581c0.96-3.062,2.127-7.038,3.503-11.927
			c0.866-3.062,1.881-6.832,3.043-11.309c0.441-1.708,0.882-3.415,1.323-5.125h17.14L95.855,61.931z"/>
		<path fill="#010101" d="M132.204,36.664c-0.974,5.537-1.731,9.438-2.271,11.706s-1.225,4.168-2.056,5.697
			c-1.528,2.828-3.516,4.875-5.962,6.141c-2.448,1.268-5.334,1.9-8.659,1.9c-3.325,0-5.989-0.633-7.99-1.9
			c-2.002-1.266-3.293-3.312-3.873-6.141c-0.277-1.354-0.267-3.342,0.031-5.963c0.296-2.619,0.886-6.435,1.767-11.44l1.818-10.337
			c0.974-5.536,1.73-9.438,2.271-11.706c0.539-2.267,1.225-4.166,2.056-5.698c1.563-2.768,3.526-4.741,5.888-5.919
			c2.361-1.177,5.274-1.767,8.741-1.767c3.465,0,6.162,0.574,8.091,1.723c1.929,1.148,3.182,3.136,3.763,5.963
			c0.266,1.414,0.25,3.432-0.046,6.052c-0.298,2.622-0.881,6.405-1.751,11.353L132.204,36.664z M117.826,46.911l5.3-30.125
			c0.114-0.647,0.197-1.118,0.249-1.414c0.332-1.884,0.464-3.239,0.399-4.064c-0.066-0.824-0.52-1.237-1.363-1.237
			c-0.843,0-1.462,0.457-1.856,1.37c-0.396,0.914-0.826,2.694-1.292,5.345l-5.486,31.186c-0.28,1.59-0.381,2.828-0.302,3.711
			c0.078,0.883,0.516,1.326,1.312,1.326C116.098,53.009,117.111,50.976,117.826,46.911z"/>
		<path fill="#010101" d="M161.185,61.931h-10.748l-4.252-28.536l-5.021,28.536h-10.467l10.693-60.783h10.678l4.369,28.271
			l4.974-28.271h10.466L161.185,61.931z"/>
		<path fill="#010101" d="M198.926,13.251h-7.375l-8.564,48.679h-12.574l8.564-48.679h-7.516l2.129-12.104h27.466L198.926,13.251z"
			/>
		<path fill="#010101" d="M225.532,36.664c-0.974,5.537-1.73,9.438-2.27,11.706s-1.225,4.168-2.057,5.697
			c-1.527,2.828-3.516,4.875-5.963,6.141c-2.447,1.268-5.334,1.9-8.658,1.9c-3.325,0-5.988-0.633-7.99-1.9
			c-2.002-1.266-3.293-3.312-3.871-6.141c-0.278-1.354-0.268-3.342,0.029-5.963c0.297-2.619,0.887-6.435,1.768-11.44l1.818-10.337
			c0.975-5.536,1.73-9.438,2.271-11.706c0.539-2.267,1.225-4.166,2.056-5.698c1.564-2.768,3.527-4.741,5.889-5.919
			c2.361-1.177,5.274-1.767,8.74-1.767s6.162,0.574,8.092,1.723c1.929,1.148,3.182,3.136,3.764,5.963
			c0.266,1.414,0.25,3.432-0.047,6.052c-0.297,2.622-0.881,6.405-1.752,11.353L225.532,36.664z M211.155,46.911l5.301-30.125
			c0.113-0.647,0.196-1.118,0.248-1.414c0.332-1.884,0.465-3.239,0.398-4.064c-0.065-0.824-0.52-1.237-1.362-1.237
			s-1.462,0.457-1.856,1.37c-0.396,0.914-0.826,2.694-1.292,5.345l-5.486,31.186c-0.28,1.59-0.382,2.828-0.302,3.711
			c0.078,0.883,0.516,1.326,1.312,1.326C209.426,53.009,210.44,50.976,211.155,46.911z"/>
		<path fill="#010101" d="M254.514,61.931h-10.748l-4.252-28.536l-5.021,28.536h-10.467l10.693-60.783h10.678l4.369,28.271
			l4.975-28.271h10.467L254.514,61.931z"/>
		<path fill="#010101" d="M281.149,61.931h-12.012l6.684-37.989c0.383-2.178,0.292-3.725-0.273-4.639
			c-0.565-0.912-1.878-1.369-3.938-1.369h-1.757l1.243-7.068c2.794-0.707,5.324-1.914,7.592-3.623
			c1.945-1.471,3.965-3.503,6.061-6.096h7.095L281.149,61.931z"/>
		<path fill="#010101" d="M313.709,42.053c-0.674,3.829-1.097,6.097-1.268,6.804c-0.846,3.475-2.207,6.42-4.082,8.834
			c-2.787,3.594-6.335,5.389-10.643,5.389c-2.576,0-4.613-0.398-6.113-1.193s-2.682-2.193-3.547-4.195s-1.26-4.02-1.183-6.053
			c0.077-2.031,0.446-4.932,1.109-8.702l3.746-21.291c0.704-4.004,1.423-7.229,2.159-9.674c0.733-2.443,1.748-4.55,3.043-6.317
			c1.293-1.767,2.918-3.15,4.875-4.152C303.762,0.501,305.84,0,308.042,0c2.529,0,4.658,0.604,6.391,1.811
			c1.73,1.208,2.902,2.871,3.512,4.991c0.615,1.827,0.838,3.755,0.668,5.787c-0.171,2.032-0.607,5.051-1.312,9.055L313.709,42.053z
			 M302.067,46.735l5.301-30.126c0.125-0.707,0.218-1.237,0.279-1.59c0.353-2.001,0.502-3.446,0.446-4.33
			c-0.056-0.883-0.505-1.325-1.348-1.325c-0.749,0-1.353,0.428-1.806,1.281c-0.456,0.855-0.822,2.076-1.102,3.667l-5.627,31.982
			c-0.26,1.473-0.518,2.945-0.777,4.416c-0.211,2.004,0.268,3.004,1.439,3.004c0.889,0,1.52-0.455,1.891-1.369
			C301.135,51.433,301.571,49.562,302.067,46.735z"/>
		<path fill="#010101" d="M321.119,61.931h-9.132l2.176-12.369h9.132L321.119,61.931z"/>
		<path fill="#010101" d="M336.033,61.931H324.02l6.684-37.989c0.384-2.178,0.293-3.725-0.272-4.639
			c-0.565-0.912-1.878-1.369-3.938-1.369h-1.756l1.242-7.068c2.795-0.707,5.324-1.914,7.592-3.623
			c1.945-1.471,3.965-3.503,6.061-6.096h7.096L336.033,61.931z"/>
		<path fill="#010101" d="M368.592,42.053c-0.674,3.829-1.096,6.097-1.267,6.804c-0.847,3.475-2.208,6.42-4.083,8.834
			c-2.787,3.594-6.334,5.389-10.643,5.389c-2.576,0-4.613-0.398-6.112-1.193c-1.5-0.795-2.683-2.193-3.547-4.195
			c-0.866-2.002-1.26-4.02-1.183-6.053c0.076-2.031,0.445-4.932,1.109-8.702l3.746-21.291c0.704-4.004,1.423-7.229,2.158-9.674
			c0.734-2.443,1.748-4.55,3.043-6.317c1.295-1.767,2.918-3.15,4.875-4.152C358.645,0.501,360.723,0,362.925,0
			c2.528,0,4.658,0.604,6.39,1.811c1.73,1.208,2.902,2.871,3.512,4.991c0.615,1.827,0.838,3.755,0.668,5.787
			c-0.17,2.032-0.607,5.051-1.312,9.055L368.592,42.053z M356.951,46.735l5.3-30.126c0.125-0.707,0.218-1.237,0.279-1.59
			c0.354-2.001,0.502-3.446,0.446-4.33c-0.056-0.883-0.505-1.325-1.347-1.325c-0.75,0-1.353,0.428-1.807,1.281
			c-0.455,0.855-0.822,2.076-1.102,3.667l-5.627,31.982c-0.259,1.473-0.518,2.945-0.777,4.416c-0.211,2.004,0.268,3.004,1.439,3.004
			c0.889,0,1.52-0.455,1.891-1.369C356.019,51.433,356.454,49.562,356.951,46.735z"/>
	</g>
</g>
</svg>
