<?xml version="1.0" encoding="utf-8"?>
<!-- Generator: Adobe Illustrator 15.0.0, SVG Export Plug-In  -->
<!DOCTYPE svg PUBLIC "-//W3C//DTD SVG 1.1//EN" "http://www.w3.org/Graphics/SVG/1.1/DTD/svg11.dtd" [
	<!ENTITY ns_flows "http://ns.adobe.com/Flows/1.0/">
]>
<svg version="1.1"
	 xmlns="http://www.w3.org/2000/svg" xmlns:xlink="http://www.w3.org/1999/xlink" xmlns:a="http://ns.adobe.com/AdobeSVGViewerExtensions/3.0/"
	 x="0px" y="0px" width="638px" height="62px" viewBox="0 0 638 62" overflow="visible" enable-background="new 0 0 638 62"
	 xml:space="preserve">
<defs>
</defs>
<path fill="#ED2224" d="M281.193,1.148L265.16,61.932h-15.033c0.105-4.064,0.348-9.101,0.726-15.107
	c0.377-6.008,0.783-11.574,1.216-16.698c-1.08,4.007-2.182,8.011-3.308,12.015c-3.436,12.075-5.299,18.672-5.589,19.791H228.28
	l5.214-60.783h11.872l-5.002,41.611c1.347-7.656,3.162-15.578,5.445-23.765c1.702-5.948,3.428-11.896,5.177-17.846h12.574
	l-5.056,43.113l10.957-43.113H281.193z"/>
<path fill="#ED2224" d="M304.82,36.664c-0.974,5.537-1.731,9.439-2.27,11.705c-0.54,2.269-1.225,4.168-2.057,5.699
	c-1.528,2.826-3.516,4.874-5.962,6.14c-2.448,1.268-5.333,1.899-8.658,1.899c-3.326,0-5.989-0.632-7.99-1.899
	c-2.002-1.266-3.293-3.313-3.873-6.14c-0.277-1.354-0.267-3.342,0.031-5.964c0.296-2.62,0.886-6.435,1.767-11.44l1.818-10.337
	c0.974-5.535,1.731-9.438,2.271-11.706c0.539-2.267,1.225-4.166,2.056-5.699c1.563-2.768,3.526-4.74,5.888-5.919
	c2.361-1.178,5.274-1.767,8.741-1.767c3.465,0,6.162,0.574,8.091,1.723c1.929,1.148,3.182,3.137,3.763,5.963
	c0.267,1.414,0.25,3.432-0.046,6.052c-0.298,2.622-0.881,6.405-1.751,11.353L304.82,36.664z M290.443,46.912l5.3-30.126
	c0.114-0.647,0.197-1.118,0.249-1.413c0.332-1.885,0.464-3.239,0.399-4.064c-0.066-0.824-0.52-1.236-1.363-1.236
	s-1.462,0.457-1.856,1.369c-0.396,0.914-0.826,2.694-1.292,5.345l-5.486,31.187c-0.28,1.59-0.381,2.826-0.302,3.71
	c0.078,0.884,0.516,1.325,1.312,1.325C288.714,53.008,289.728,50.977,290.443,46.912z"/>
<path fill="#ED2224" d="M331.466,61.932h-11.661l3.87-21.999c0.384-2.179,0.403-3.622,0.06-4.329s-1.312-1.061-2.904-1.061
	l-4.819,27.389h-12.574l10.694-60.783h8.922c7.398,0,11.996,0.619,13.793,1.855c2.961,2.062,3.764,6.95,2.407,14.666
	c-0.808,4.594-1.723,7.657-2.74,9.188c-1.212,1.826-3.329,2.946-6.351,3.357c2.82,1.002,4.499,2.504,5.037,4.506
	c0.423,1.59,0.246,4.594-0.531,9.011L331.466,61.932z M327.25,19.613l0.59-3.357c0.28-1.59,0.312-2.708,0.1-3.357
	c-0.312-0.883-1.148-1.325-2.506-1.325h-0.562l-2.363,13.429c1.639,0,2.74-0.338,3.305-1.016
	C326.377,23.31,326.855,21.852,327.25,19.613z"/>
<path fill="#ED2224" d="M357.939,61.932h-23.955l10.693-60.783h12.574l-8.563,48.68h11.38L357.939,61.932z"/>
<path fill="#ED2224" d="M392.193,44.085c-0.736,4.183-1.189,6.626-1.359,7.333c-0.806,3.24-1.968,5.654-3.488,7.244
	c-1.521,1.59-3.306,2.621-5.355,3.092c-1.363,0.295-3.474,0.441-6.33,0.441h-15.806l10.694-60.782h9.412
	c5.059,0,8.643,0.192,10.752,0.574c2.111,0.384,3.783,1.458,5.018,3.225c1.219,1.59,1.826,3.593,1.823,6.008
	c0.001,1.59-0.34,4.329-1.024,8.216L392.193,44.085z M379.736,43.025l4.678-26.593c0.362-2.061,0.295-3.342-0.202-3.843
	c-0.498-0.5-1.472-0.751-2.923-0.751l-7.01,39.844c2.2,0,3.602-0.913,4.204-2.739C378.789,48.002,379.207,46.029,379.736,43.025z"/>
<path fill="#ED2224" d="M429.479,13.252h-7.375l-8.564,48.68h-12.574l8.563-48.68h-7.517l2.13-12.104h27.466L429.479,13.252z"/>
<path fill="#ED2224" d="M456.084,36.664c-0.975,5.537-1.73,9.439-2.27,11.705c-0.541,2.269-1.227,4.168-2.057,5.699
	c-1.528,2.826-3.517,4.874-5.963,6.14c-2.448,1.268-5.334,1.899-8.658,1.899c-3.326,0-5.99-0.632-7.99-1.899
	c-2.002-1.266-3.293-3.313-3.873-6.14c-0.277-1.354-0.266-3.342,0.031-5.964c0.297-2.62,0.887-6.435,1.767-11.44l1.819-10.337
	c0.974-5.535,1.73-9.438,2.27-11.706c0.539-2.267,1.225-4.166,2.057-5.699c1.564-2.768,3.525-4.74,5.889-5.919
	c2.36-1.178,5.273-1.767,8.74-1.767c3.465,0,6.162,0.574,8.092,1.723c1.928,1.148,3.182,3.137,3.762,5.963
	c0.268,1.414,0.251,3.432-0.045,6.052c-0.299,2.622-0.881,6.405-1.752,11.353L456.084,36.664z M441.707,46.912l5.3-30.126
	c0.114-0.647,0.196-1.118,0.249-1.413c0.331-1.885,0.464-3.239,0.398-4.064c-0.066-0.824-0.52-1.236-1.363-1.236
	c-0.842,0-1.462,0.457-1.855,1.369c-0.396,0.914-0.826,2.694-1.293,5.345l-5.486,31.187c-0.279,1.59-0.381,2.826-0.301,3.71
	c0.078,0.884,0.515,1.325,1.312,1.325C439.978,53.008,440.992,50.977,441.707,46.912z"/>
<path fill="#ED2224" d="M486.435,44.527c-0.519,2.945-1.11,5.375-1.774,7.287c-0.664,1.916-1.691,3.756-3.078,5.522
	c-1.389,1.767-3.07,3.003-5.043,3.71c-1.976,0.707-4.344,1.061-7.106,1.061c-3.138,0-5.728-0.455-7.767-1.369
	c-2.042-0.912-3.424-2.37-4.148-4.373c-0.543-1.707-0.748-3.607-0.613-5.699c0.133-2.09,0.537-5.049,1.211-8.879l7.149-40.639
	h12.574l-8.253,46.912c-0.322,1.826-0.453,3.107-0.395,3.844c0.057,0.736,0.508,1.104,1.351,1.104c0.608,0,1.126-0.354,1.556-1.061
	c0.429-0.706,0.855-2.266,1.281-4.682l8.113-46.117h12.574L486.435,44.527z"/>
<path fill="#ED2224" d="M514.684,61.932h-11.662l3.871-21.999c0.383-2.179,0.402-3.622,0.059-4.329s-1.312-1.061-2.904-1.061
	l-4.818,27.389h-12.574l10.693-60.783h8.922c7.398,0,11.996,0.619,13.793,1.855c2.963,2.062,3.765,6.95,2.408,14.666
	c-0.809,4.594-1.723,7.657-2.74,9.188c-1.213,1.826-3.329,2.946-6.352,3.357c2.82,1.002,4.5,2.504,5.038,4.506
	c0.423,1.59,0.245,4.594-0.532,9.011L514.684,61.932z M510.467,19.613l0.591-3.357c0.28-1.59,0.312-2.708,0.099-3.357
	c-0.312-0.883-1.148-1.325-2.506-1.325h-0.562l-2.361,13.429c1.638,0,2.739-0.338,3.304-1.016
	C509.594,23.31,510.073,21.852,510.467,19.613z"/>
<path fill="#ED2224" d="M555.465,15.814c-0.57,3.24-1.704,6.626-3.402,10.16c-1.398,2.886-3.612,6.685-6.642,11.397
	c-3.03,4.713-6.083,9.424-9.16,14.135h11.872l-1.835,10.426h-23.884l1.523-8.658c4.729-7.715,7.955-13.017,9.682-15.902
	c2.041-3.357,4.414-7.391,7.117-12.104c1.787-3.238,2.967-5.551,3.538-6.935c0.571-1.383,0.987-2.812,1.245-4.285
	c0.55-3.121,0.004-4.683-1.635-4.683c-0.938,0-1.673,0.589-2.207,1.767c-0.535,1.179-0.989,2.827-1.362,4.947l-0.995,5.654h-9.834
	l0.357-2.032c0.207-1.177,0.42-2.326,0.641-3.445c0.221-1.118,0.505-2.267,0.853-3.446c1.204-4.181,3.005-7.361,5.401-9.541
	C539.135,1.09,541.973,0,545.252,0c1.686,0,3.146,0.221,4.379,0.663c1.232,0.442,2.324,1.164,3.271,2.165
	C555.596,5.89,556.449,10.219,555.465,15.814z"/>
<path fill="#ED2224" d="M580.023,61.932h-12.996l-0.473-26.062l-4.584,26.062h-12.575L560.09,1.148h12.574l-4.15,23.588
	l9.699-23.588h11.801l-12.053,27.387L580.023,61.932z"/>
<path fill="#ED2224" d="M598.756,61.932h-12.012l6.684-37.99c0.383-2.178,0.291-3.725-0.273-4.638
	c-0.565-0.913-1.878-1.37-3.938-1.37h-1.756l1.243-7.067c2.793-0.707,5.324-1.913,7.592-3.622c1.945-1.472,3.964-3.504,6.061-6.096
	h7.094L598.756,61.932z"/>
<path fill="#ED2224" d="M632.085,51.241h-3.091l-1.881,10.69h-10.818l1.881-10.69H605.25l1.836-10.425l16.392-39.668h14.329
	l-6.979,39.668h3.091L632.085,51.241z M620.01,40.816l4.551-25.792l-9.409,25.788L620.01,40.816z"/>
<g>
	<g>
		<path fill="#ED2224" d="M27.835,47c-0.892,5.066-2.528,8.777-4.909,11.132c-2.725,2.71-6.71,4.063-11.955,4.063
			c-5.012,0-8.251-1.412-9.721-4.24c-1.47-2.826-1.645-7.421-0.526-13.781l0.498-2.828H11.76l-0.467,2.65
			c-0.477,2.711-0.698,4.698-0.662,5.964c0.034,1.267,0.52,1.899,1.457,1.899c0.749,0,1.413-0.515,1.993-1.547
			c0.579-1.029,1.003-2.311,1.273-3.842l7.974-45.322h12.574L27.835,47z"/>
		<path fill="#ED2224" d="M58.638,61.932H45.683l1.29-10.955h-4.601l-2.622,10.955H26.886L43.972,1.148h18.194L58.638,61.932z
			 M48.638,40.109c0.366-4.475,0.823-9.467,1.37-14.975c0.547-5.506,0.95-8.996,1.209-10.469c-0.826,2.827-2.118,7.509-3.876,14.047
			c-1.167,4.241-2.187,8.04-3.059,11.397H48.638z"/>
		<path fill="#ED2224" d="M92.913,39.933c-0.125,0.706-0.217,1.237-0.28,1.591c-0.104,0.589-0.182,1.031-0.233,1.324
			c-0.58,3.3-1.224,5.891-1.93,7.775c-2.669,7.716-7.891,11.572-15.664,11.572c-2.81,0-5.016-0.235-6.619-0.706
			s-2.916-1.53-3.937-3.181c-1.25-1.943-1.853-4.182-1.804-6.715c0.047-2.531,0.511-6.301,1.392-11.308l3.87-21.999
			c1.057-6.007,3.083-10.41,6.082-13.208c2.997-2.797,6.885-4.197,11.662-4.197c2.856,0,5.074,0.31,6.651,0.928
			c1.577,0.619,2.84,1.826,3.789,3.622c0.948,1.797,1.397,4.168,1.348,7.112c-0.046,2.12-0.425,5.212-1.14,9.276l-0.56,3.18H83.598
			l1.398-7.951c0.114-0.647,0.202-1.148,0.265-1.502c0.311-1.767,0.468-2.796,0.474-3.092c0.024-1.472-0.525-2.209-1.648-2.209
			c-1.593,0-2.612,1.268-3.057,3.799l-6.016,34.19c-0.549,3.122-0.051,4.683,1.495,4.683c0.983,0,1.679-0.5,2.09-1.502
			c0.41-1.001,0.885-3.033,1.424-6.096l1.353-7.687h11.942L92.913,39.933z"/>
		<path fill="#ED2224" d="M122.837,61.932h-12.996l-0.473-26.062l-4.585,26.062H92.209l10.693-60.783h12.574l-4.15,23.588
			l9.7-23.588h11.801l-12.054,27.387L122.837,61.932z"/>
	</g>
</g>
<g>
	<g>
		<g>
			<g>
				<g>
					<g>
						<path fill="#ED2224" d="M131.108,25.704l4.252-24.533h18.654l-2.144,12.314h-7.601l-2.151,12.454h7.81l-1.99,11.512h-11.075
							C132.849,37.451,129.461,34.377,131.108,25.704z"/>
					</g>
				</g>
				<path fill="#ED2224" d="M136.213,61.709h35.293l2.005-11.596h-31.639l1.478-8.667h-11.44l-1.888,11.021
					C129.248,56.355,130.381,61.709,136.213,61.709z"/>
				<g>
					<polygon fill="#ED2224" points="177.273,50.113 175.35,61.709 217.551,61.709 219.472,50.113 					"/>
				</g>
				<polygon fill="#ED2224" points="171.224,1.186 181.986,1.186 174.256,45.918 163.515,45.918 166.783,27.007 163.608,27.007 
					160.335,45.918 149.663,45.918 157.395,1.186 168.05,1.186 165.635,15.265 168.812,15.265 				"/>
				<path fill="#ED2224" d="M202.748,26.008c-7.98,14.89-22.052,20.316-22.052,20.316l-1.854-12.578
					c4.339-2.302,8.511-6.018,12.501-11.134c4.928-6.36,8.326-13.454,10.233-21.404l10.479-0.024
					c-0.992,8.247-0.762,21.551,10.976,32.267l-6.145,12.52C206.061,38.172,202.748,26.008,202.748,26.008z"/>
			</g>
		</g>
	</g>
</g>
</svg>
