<?xml version="1.0" encoding="utf-8"?>
<!-- Generator: Adobe Illustrator 15.0.0, SVG Export Plug-In  -->
<!DOCTYPE svg PUBLIC "-//W3C//DTD SVG 1.1//EN" "http://www.w3.org/Graphics/SVG/1.1/DTD/svg11.dtd" [
	<!ENTITY ns_flows "http://ns.adobe.com/Flows/1.0/">
]>
<svg version="1.1"
	 xmlns="http://www.w3.org/2000/svg" xmlns:xlink="http://www.w3.org/1999/xlink" xmlns:a="http://ns.adobe.com/AdobeSVGViewerExtensions/3.0/"
	 x="0px" y="0px" width="330px" height="410px" viewBox="0 0 330 410" overflow="visible" enable-background="new 0 0 330 410"
	 xml:space="preserve">
<defs>
</defs>
<path fill="#FFFFFF" d="M299.253,197.211l17.608-62.152c-4.756-10.017-15.233-13.349-15.233-13.349l-22.201,78.355
	C291.863,202.712,299.253,197.211,299.253,197.211z"/>
<path fill="#FFFFFF" d="M50.849,200.065L28.646,121.71c0,0-10.475,3.333-15.224,13.349l17.603,62.152
	C31.024,197.211,38.415,202.712,50.849,200.065z"/>
<path fill="#FFFFFF" d="M266.057,193.45c0.206-0.351,0.423-0.707,0.609-1.051c1.54-2.841,2.202-6.427,1.221-8.096
	c-1.535-2.62-0.553-4.372,0.871-10.594c2.987-12.988,5.81-26.818,5.81-41.304c0-14.476-5.282-64.884-49.969-64.884
	c-41.286,0-58.18,38.001-59.463,41.024c-1.275-3.023-18.178-41.024-59.459-41.024c-44.682,0-49.973,50.408-49.973,64.884
	c0,14.485,2.825,28.316,5.815,41.304c1.426,6.223,2.41,7.975,0.868,10.594c-0.976,1.669-0.324,5.255,1.223,8.096
	c0.188,0.345,0.404,0.701,0.611,1.053c-22.338,22.186-35.975,51.755-35.975,84.229c0,68.852,61.297,124.664,136.892,124.664
	c75.607,0,136.891-55.812,136.891-124.664C302.029,245.207,288.394,215.637,266.057,193.45z"/>
<path fill="#010101" d="M266.759,184.226c-26.108-23.776-62.046-38.379-101.621-38.381c-39.568,0.002-75.505,14.605-101.618,38.381
	c-26.108,23.75-42.445,56.863-42.437,93.456c-0.009,36.588,16.328,69.697,42.437,93.447c26.113,23.775,62.05,38.379,101.618,38.381
	c39.575-0.002,75.513-14.605,101.621-38.381c26.107-23.752,42.441-56.859,42.434-93.447
	C309.2,241.089,292.866,207.977,266.759,184.226z M279.998,332.324h-42.501c4.94-15.037,7.901-31.584,8.429-49.014h48.786
	C293.793,300.934,288.596,317.541,279.998,332.324z M35.562,283.311h48.787c0.527,17.43,3.489,33.977,8.429,49.014H50.278
	C41.681,317.541,36.481,300.934,35.562,283.311z M49.894,223.698h42.662c-4.809,14.859-7.688,31.177-8.207,48.353H35.562
	C36.468,254.689,41.524,238.314,49.894,223.698z M170.767,212.439v-51.143c0.341,0.208,0.706,0.385,1.099,0.521
	c17.472,6.012,33.234,20.544,44.61,40.942c1.728,3.094,3.338,6.334,4.851,9.68H170.767z M225.846,223.698
	c5.128,14.604,8.257,30.983,8.814,48.353h-63.894v-48.353H225.846z M159.51,161.293v51.146h-50.562
	c1.514-3.346,3.124-6.585,4.852-9.679c11.375-20.397,27.138-34.932,44.605-40.944C158.8,161.681,159.168,161.502,159.51,161.293z
	 M159.51,223.698v48.353H95.614c0.558-17.369,3.688-33.749,8.814-48.353H159.51z M95.614,283.311h63.896v49.014h-54.847
	C99.396,317.555,96.181,300.941,95.614,283.311z M159.51,343.584v50.369c-0.196-0.094-0.398-0.178-0.609-0.248
	c-17.591-5.885-33.473-20.389-44.943-40.826c-1.671-2.975-3.233-6.086-4.706-9.295H159.51z M170.767,393.953v-50.369h50.256
	c-1.473,3.209-3.036,6.32-4.707,9.293c-11.471,20.439-27.354,34.943-44.937,40.826C171.167,393.775,170.964,393.861,170.767,393.953
	z M170.767,332.324v-49.014h63.894c-0.565,17.629-3.782,34.244-9.05,49.014H170.767z M245.926,272.051
	c-0.52-17.176-3.398-33.493-8.207-48.353h42.665c8.367,14.616,13.423,30.991,14.328,48.353H245.926z M273.037,212.439h-39.455
	c-2.179-5.292-4.601-10.367-7.276-15.166c-7.423-13.296-16.714-24.591-27.427-33.08c22.412,5.456,42.396,16.202,58.232,30.625
	C263.031,200.217,268.366,206.117,273.037,212.439z M73.167,194.82c15.836-14.422,35.818-25.167,58.226-30.624
	c-10.712,8.488-20.003,19.783-27.425,33.079c-2.676,4.798-5.098,9.874-7.275,15.165H57.241
	C61.913,206.117,67.248,200.217,73.167,194.82z M57.742,343.584h39.226c2.155,5.164,4.543,10.119,7.174,14.807
	c7.392,13.158,16.621,24.344,27.249,32.766c-22.406-5.457-42.388-16.201-58.224-30.621
	C67.458,355.328,62.294,349.654,57.742,343.584z M257.111,360.535c-15.835,14.422-35.818,25.166-58.229,30.621
	c10.628-8.422,19.857-19.607,27.251-32.766c2.631-4.688,5.019-9.643,7.174-14.807h39.229
	C267.984,349.654,262.821,355.328,257.111,360.535z"/>
<path fill="#010101" d="M101.349,87.312C80.502,87.523,64.053,109,64.202,134.115c0.141,16.032,2.291,25.561,6.049,37.586
	c-2.028-26.921-0.004-49.172,17.031-60.872c-12.045,19.189-13.072,39.59-6.127,61.874c-6.891,1.91-10.44,5.686-11.48,6.578
	c-1.215,1.051-0.623,2.29,0.74,1.595c1.084-0.539,5.856-1.834,11.729-2.334c3.486-2.425,7.105-4.701,10.845-6.817
	c-1.066-0.091-2.145-0.142-3.236-0.142c-0.229,0-0.458,0.013-0.679,0.015c-4.756-8.787-5.962-16.791-5.333-29.508
	c0.159-3.173,2.197-4.003,3.573-4.225c0.066-6.396,2.618-11.536,5.764-11.536c3.194,0,5.779,5.273,5.779,11.792
	c0,6.51-2.585,11.79-5.779,11.79c-1.856,0-3.509-1.8-4.564-4.585c-0.06,0.486-0.096,0.992-0.096,1.504
	c0,4.507,2.303,8.164,5.136,8.164c0.017,0,0.039-0.001,0.056-0.001c1.589,6.113,4.666,10.658,8.36,12.066
	c3.191-1.515,6.452-2.924,9.784-4.21c2.796-4.029,4.596-10.296,4.596-17.343c0-1.414-0.072-2.798-0.214-4.142
	c3.101-2.148,9.104-2.448,9.335,4.676c0.154,4.839-0.113,8.908-0.729,12.491c2.318-0.651,4.664-1.244,7.032-1.784
	c1.472-13.82-1.226-28.633-7.31-42.11c12.975,10.567,15.952,31.143,15.952,31.143c0.275-1.688,0.874-8.169,0.874-10.777
	C141.29,108.37,122.888,87.086,101.349,87.312z M323.308,129.4c-3.46-6.476-11.868-14.404-23.42-19.545
	C291.374,47.878,235.015,0.033,165.323,0c0,0-0.02,0-0.036,0c0,0-0.014,0-0.023,0C95.582,0.033,38.897,47.878,30.389,109.854
	c-11.55,5.141-19.957,13.07-23.423,19.545c-16.433,30.735-1.426,64.636,20.439,75.943c8.835,4.567,17.221,4.977,22.88,4.49
	c4.148-5.813,8.812-11.291,13.937-16.38c-0.207-0.352-0.424-0.708-0.611-1.053c-1.547-2.841-2.198-6.427-1.223-8.096
	c1.542-2.62,0.558-4.372-0.868-10.594c-2.99-12.988-5.815-26.818-5.815-41.304c0-14.476,5.291-64.884,49.973-64.884
	c41.281,0,58.184,38.001,59.459,41.024c1.283-3.023,18.177-41.024,59.463-41.024c44.687,0,49.969,50.408,49.969,64.884
	c0,14.485-2.822,28.316-5.81,41.304c-1.424,6.223-2.406,7.975-0.871,10.594c0.981,1.669,0.319,5.255-1.221,8.096
	c-0.187,0.344-0.403,0.7-0.609,1.051c5.125,5.09,9.789,10.569,13.938,16.383c5.66,0.486,14.045,0.076,22.878-4.49
	C324.741,194.036,339.746,160.135,323.308,129.4z M31.024,197.211L13.422,135.06c4.749-10.017,15.224-13.349,15.224-13.349
	l22.203,78.355C38.415,202.712,31.024,197.211,31.024,197.211z M299.253,197.211c0,0-7.39,5.501-19.826,2.854l22.201-78.355
	c0,0,10.478,3.333,15.233,13.349L299.253,197.211z M249.116,172.703c6.959-22.284,5.924-42.684-6.126-61.874
	c17.038,11.699,19.058,33.95,17.036,60.872c3.761-12.025,5.908-21.554,6.048-37.586c0.147-25.115-16.294-46.591-37.152-46.802
	c-21.529-0.226-39.93,21.057-39.93,47.689c0,2.608,0.59,9.088,0.865,10.777c0,0,2.977-20.576,15.952-31.143
	c-6.084,13.477-8.778,28.29-7.307,42.109c2.368,0.54,4.714,1.133,7.031,1.784c-0.615-3.583-0.884-7.651-0.729-12.49
	c0.233-7.124,6.235-6.824,9.332-4.676c-0.139,1.344-0.212,2.728-0.212,4.142c0,7.043,1.796,13.308,4.589,17.337
	c3.337,1.288,6.602,2.698,9.797,4.215c3.694-1.409,6.769-5.953,8.352-12.065c0.02,0,0.04,0.001,0.057,0.001
	c2.842,0,5.133-3.657,5.133-8.164c0-0.512-0.032-1.018-0.086-1.504c-1.063,2.785-2.713,4.585-4.571,4.585
	c-3.19,0-5.773-5.28-5.773-11.79c0-6.519,2.583-11.792,5.773-11.792c3.149,0,5.707,5.14,5.766,11.536
	c1.373,0.221,3.42,1.052,3.575,4.225c0.628,12.717-0.575,20.721-5.337,29.508c-0.22-0.002-0.438-0.015-0.668-0.015
	c-1.092,0-2.171,0.05-3.237,0.142c3.74,2.117,7.358,4.393,10.847,6.818c5.868,0.501,10.64,1.795,11.726,2.333
	c1.364,0.695,1.953-0.544,0.738-1.595C259.561,178.389,256.01,174.612,249.116,172.703z"/>
</svg>
