<?xml version="1.0" encoding="utf-8"?>
<!-- Generator: Adobe Illustrator 15.0.0, SVG Export Plug-In . SVG Version: 6.00 Build 0)  -->
<!DOCTYPE svg PUBLIC "-//W3C//DTD SVG 1.1//EN" "http://www.w3.org/Graphics/SVG/1.1/DTD/svg11.dtd">
<svg version="1.1" id="Layer_1" xmlns="http://www.w3.org/2000/svg" xmlns:xlink="http://www.w3.org/1999/xlink" x="0px" y="0px"
	 width="339.478px" height="63.08px" viewBox="0 0 339.478 63.08" enable-background="new 0 0 339.478 63.08" xml:space="preserve">
<g>
	<g>
		<path fill="#010101" d="M30.487,61.931H19.739l-4.252-28.535l-5.021,28.535H0L10.693,1.149h10.678L25.74,29.42l4.974-28.271
			h10.467L30.487,61.931z"/>
		<path fill="#010101" d="M55.307,61.931H33.601L44.294,1.149h20.934l-2.129,12.104h-8.359l-2.036,11.573h7.868l-2.036,11.573
			h-7.868l-2.362,13.429h9.132L55.307,61.931z"/>
		<path fill="#010101" d="M114.515,1.149L98.482,61.931H83.45c0.105-4.064,0.347-9.1,0.726-15.107
			c0.378-6.008,0.783-11.573,1.217-16.697c-1.08,4.006-2.182,8.01-3.308,12.016c-3.436,12.074-5.299,18.671-5.589,19.789H61.603
			l5.214-60.782h11.872l-5.003,41.61c1.347-7.655,3.162-15.577,5.446-23.764c1.702-5.949,3.427-11.896,5.177-17.846h12.574
			l-5.056,43.112l10.957-43.112H114.515z"/>
		<path fill="#010101" d="M148.026,1.149l-15.956,38.784l-3.87,21.998h-11.731l3.87-21.998l-1.957-38.784h11.59
			c-0.233,7.716-0.382,12.015-0.443,12.898c-0.231,4.241-0.48,7.922-0.749,11.043c1.551-5.359,3.083-10.336,4.594-14.931
			c0.996-3.004,2.016-6.007,3.061-9.011H148.026z"/>
		<path fill="#010101" d="M169.91,36.664c-0.974,5.537-1.731,9.439-2.271,11.707s-1.225,4.167-2.056,5.697
			c-1.528,2.828-3.516,4.875-5.962,6.141c-2.448,1.268-5.334,1.899-8.658,1.899c-3.326,0-5.989-0.632-7.99-1.899
			c-2.002-1.266-3.293-3.312-3.872-6.141c-0.278-1.354-0.267-3.342,0.03-5.963c0.296-2.62,0.886-6.434,1.767-11.441l1.818-10.336
			c0.974-5.536,1.731-9.438,2.271-11.706c0.539-2.267,1.225-4.166,2.056-5.698c1.563-2.768,3.526-4.74,5.888-5.919
			c2.361-1.177,5.274-1.767,8.741-1.767c3.465,0,6.162,0.574,8.091,1.723c1.928,1.148,3.182,3.136,3.763,5.963
			c0.267,1.414,0.251,3.432-0.046,6.052c-0.298,2.622-0.881,6.405-1.752,11.353L169.91,36.664z M155.532,46.913l5.3-30.126
			c0.114-0.647,0.197-1.118,0.249-1.414c0.332-1.884,0.464-3.238,0.399-4.064c-0.066-0.824-0.52-1.237-1.363-1.237
			c-0.843,0-1.462,0.457-1.857,1.37c-0.396,0.914-0.825,2.694-1.292,5.345l-5.487,31.186c-0.279,1.591-0.381,2.828-0.301,3.711
			c0.078,0.883,0.515,1.325,1.312,1.325C153.803,53.008,154.817,50.976,155.532,46.913z"/>
		<path fill="#010101" d="M196.167,61.931h-11.662l3.871-21.998c0.383-2.178,0.402-3.623,0.059-4.329s-1.312-1.06-2.904-1.06
			l-4.818,27.387h-12.574l10.693-60.782h8.922c7.398,0,11.996,0.618,13.793,1.855c2.963,2.062,3.766,6.951,2.408,14.666
			c-0.809,4.594-1.723,7.657-2.74,9.188c-1.212,1.826-3.328,2.946-6.352,3.357c2.82,1.002,4.5,2.504,5.038,4.505
			c0.423,1.59,0.245,4.594-0.532,9.012L196.167,61.931z M191.95,19.613l0.592-3.357c0.279-1.59,0.311-2.708,0.098-3.357
			c-0.312-0.883-1.148-1.325-2.506-1.325h-0.562l-2.361,13.429c1.639,0,2.739-0.338,3.305-1.016
			C191.077,23.31,191.558,21.853,191.95,19.613z"/>
		<path fill="#010101" d="M229.313,61.931h-12.996l-0.473-26.062l-4.585,26.062h-12.574l10.693-60.782h12.574l-4.149,23.588
			l9.699-23.588h11.801l-12.053,27.388L229.313,61.931z"/>
		<path fill="#010101" d="M272.226,15.814c-0.57,3.24-1.705,6.626-3.404,10.16c-1.396,2.886-3.611,6.686-6.641,11.396
			c-3.031,4.713-6.084,9.424-9.16,14.136h11.871l-1.834,10.425h-23.883l1.522-8.658c4.729-7.715,7.956-13.016,9.683-15.902
			c2.041-3.357,4.414-7.39,7.116-12.103c1.787-3.238,2.967-5.551,3.538-6.936c0.57-1.383,0.986-2.812,1.246-4.285
			c0.549-3.121,0.004-4.682-1.635-4.682c-0.938,0-1.674,0.589-2.207,1.767c-0.537,1.179-0.99,2.827-1.363,4.948l-0.994,5.654h-9.835
			l0.357-2.032c0.208-1.178,0.421-2.326,0.642-3.446c0.22-1.118,0.504-2.267,0.852-3.445c1.203-4.181,3.004-7.362,5.402-9.542
			C255.896,1.091,258.733,0,262.012,0c1.687,0,3.146,0.221,4.38,0.663c1.232,0.441,2.324,1.164,3.271,2.164
			C272.355,5.891,273.21,10.219,272.226,15.814z"/>
		<path fill="#010101" d="M295.588,42.23c-0.114,0.648-0.202,1.148-0.265,1.502c-0.104,0.59-0.176,1.002-0.217,1.236
			c-0.561,3.182-1.209,5.803-1.945,7.863c-2.607,6.833-7.26,10.248-13.957,10.248c-4.636,0-7.753-1.516-9.35-4.549
			c-1.598-3.033-1.847-7.672-0.748-13.916l2.953-16.785c0.518-2.945,1.111-6.257,1.783-9.939c0.671-3.68,1.396-6.405,2.176-8.172
			C279.03,3.24,283.91,0,290.653,0c5.666,0,8.939,2.827,9.818,8.481c0.229,1.356,0.286,2.695,0.17,4.02s-0.334,2.902-0.655,4.727
			h-10.888c0.258-1.472,0.439-2.503,0.543-3.092c0.301-1.708,0.396-2.929,0.289-3.666c-0.109-0.736-0.639-1.104-1.591-1.104
			c-1.476,0-2.446,1.325-2.913,3.976l-2.238,12.722c1.787-3.238,4.227-4.859,7.317-4.859c1.312,0,2.55,0.413,3.716,1.237
			c1.166,0.825,1.992,1.915,2.481,3.269c0.487,1.356,0.682,2.975,0.585,4.859c-0.098,1.886-0.379,4.152-0.846,6.802L295.588,42.23z
			 M283.751,47.619l2.006-11.396c0.342-1.943,0.473-3.357,0.395-4.24c-0.08-0.883-0.587-1.326-1.523-1.326
			c-0.938,0-1.633,0.501-2.09,1.502c-0.458,1.002-0.836,2.357-1.137,4.064l-1.943,11.043c-0.414,2.357-0.602,4.021-0.562,4.992
			c0.041,0.972,0.575,1.457,1.605,1.457c0.844,0,1.51-0.529,2.001-1.59C282.993,51.065,283.409,49.563,283.751,47.619z"/>
		<path fill="#010101" d="M303.192,61.931h-9.132l2.177-12.368h9.131L303.192,61.931z"/>
		<path fill="#010101" d="M335.868,35.162c-0.135,0.767-0.248,1.414-0.342,1.944c-0.093,0.53-0.17,0.972-0.232,1.325
			c-0.426,2.416-0.924,5.11-1.492,8.084c-0.57,2.975-1.211,5.287-1.923,6.936c-3.003,6.42-7.853,9.629-14.55,9.629
			c-5.714,0-9.01-2.827-9.888-8.48c-0.132-1.119-0.154-2.387-0.069-3.799c0.084-1.414,0.23-2.709,0.438-3.888
			c0.084-0.472,0.146-0.824,0.188-1.061h10.818c-0.197,1.12-0.338,1.915-0.42,2.386c-0.354,2.002-0.484,3.416-0.395,4.24
			c0.088,0.826,0.648,1.236,1.678,1.236c0.75,0,1.35-0.353,1.803-1.06c0.451-0.706,0.787-1.679,1.004-2.915l2.254-12.811
			c-1.798,3.299-4.219,4.947-7.262,4.947c-1.405,0-2.656-0.411-3.752-1.236c-1.096-0.824-1.924-1.914-2.48-3.27
			c-0.465-1.354-0.646-2.988-0.543-4.903c0.102-1.913,0.388-4.196,0.854-6.847l0.855-4.859c0.32-1.825,0.653-3.651,0.998-5.478
			c0.345-1.825,0.793-3.503,1.344-5.036c1.246-3.357,3.051-5.904,5.418-7.642C322.536,0.87,325.382,0,328.708,0
			c4.637,0,7.752,1.518,9.35,4.55c1.598,3.034,1.848,7.672,0.749,13.915L335.868,35.162z M326.512,26.858l1.942-11.043
			c0.353-2.001,0.536-3.181,0.553-3.534c0.106-1.943-0.426-2.915-1.596-2.915c-0.842,0-1.512,0.545-2.008,1.634
			c-0.497,1.09-0.916,2.606-1.258,4.55l-1.988,11.309c-0.322,1.826-0.425,3.211-0.31,4.152c0.114,0.942,0.617,1.413,1.507,1.413
			c1.125,0,1.958-0.883,2.504-2.65C326.076,29.066,326.294,28.095,326.512,26.858z"/>
	</g>
</g>
</svg>
