<?xml version="1.0" encoding="utf-8"?>
<!-- Generator: Adobe Illustrator 16.0.0, SVG Export Plug-In . SVG Version: 6.00 Build 0)  -->
<!DOCTYPE svg PUBLIC "-//W3C//DTD SVG 1.1//EN" "http://www.w3.org/Graphics/SVG/1.1/DTD/svg11.dtd">
<svg version="1.1" id="Layer_1" xmlns="http://www.w3.org/2000/svg" xmlns:xlink="http://www.w3.org/1999/xlink" x="0px" y="0px"
	 width="219.819px" height="63.08px" viewBox="0 0 219.819 63.08" enable-background="new 0 0 219.819 63.08" xml:space="preserve">
<g>
	<g>
		<g>
			<path d="M48.021-0.191L35.275,63.491H21.953l-2.116-28.949l-5.792,28.949H1.333L14.082-0.191h12.709l2.781,28.674l5.74-28.674
				H48.021z"/>
			<path d="M85.652-0.191L66.435,40.44L61.82,63.491H47.738l4.614-23.051L49.796-0.191H63.76
				c-0.307,12.432-0.748,20.796-1.33,25.096c2.2-6.795,5.286-15.159,9.256-25.096H85.652z"/>
			<path d="M109.13,40.709c-0.166,0.77-0.28,1.33-0.352,1.71c-0.141,0.644-0.248,1.112-0.32,1.431
				c-0.747,3.548-1.548,6.332-2.41,8.356c-3.256,8.309-9.382,12.441-18.359,12.441c-3.235,0-5.779-0.255-7.63-0.758
				c-1.829-0.508-3.325-1.644-4.465-3.425c-1.397-2.091-2.04-4.493-1.916-7.211c0.1-2.72,0.728-6.777,1.864-12.16l4.986-23.647
				c1.364-6.466,3.812-11.197,7.342-14.205c3.518-3.008,8.041-4.519,13.565-4.519c3.293,0,5.854,0.337,7.661,0.994
				c1.798,0.667,3.228,1.974,4.286,3.899c1.047,1.932,1.516,4.477,1.393,7.65c-0.114,2.284-0.629,5.603-1.543,9.976l-0.713,3.416
				H98.723l1.801-8.547c0.142-0.688,0.253-1.234,0.328-1.617c0.418-1.895,0.622-3.001,0.63-3.324
				c0.053-1.581-0.559-2.365-1.853-2.365c-1.84,0-3.044,1.354-3.627,4.078l-7.737,36.765c-0.705,3.354-0.17,5.038,1.615,5.038
				c1.139,0,1.949-0.545,2.448-1.624c0.488-1.07,1.096-3.255,1.787-6.55l1.742-8.27l13.792-0.001L109.13,40.709z"/>
		</g>
	</g>
	<g>
		<g>
			<g>
				<g>
					<path d="M114.782,25.561l5.11-25.862h21.198l-2.574,12.984h-8.64l-2.584,13.125h8.867l-2.389,12.136h-12.585
						C116.627,37.944,112.814,34.703,114.782,25.561z"/>
				</g>
			</g>
			<path d="M120,63.555h39.701l2.406-12.22h-35.543l2.02-10.257h-13.001l-2.508,12.733C112.152,57.915,113.376,63.555,120,63.555z"
				/>
			<g>
				<polygon points="165.584,51.335 163.166,63.555 213.438,63.555 215.855,51.335 				"/>
			</g>
			<polygon points="159.492,-0.271 172.076,-0.268 162.587,47.893 150.027,47.893 154.152,26.953 151.252,26.953 147.124,47.893 
				134.639,47.893 144.127,-0.268 156.59,-0.271 153.689,14.574 156.59,14.574 			"/>
			<path d="M195.837,25.17c-9.479,15.268-26.135,20.829-26.135,20.829l-2.166-12.896c5.143-2.362,10.082-6.171,14.82-11.42
				c5.842-6.521,9.888-13.793,12.157-21.95l12.405-0.025c-1.202,8.462-0.96,22.103,12.9,33.093l-7.302,12.84
				C199.732,37.642,195.837,25.17,195.837,25.17z"/>
		</g>
	</g>
</g>
</svg>
