<?xml version="1.0" encoding="utf-8"?>
<!-- Generator: Adobe Illustrator 15.0.0, SVG Export Plug-In . SVG Version: 6.00 Build 0)  -->
<!DOCTYPE svg PUBLIC "-//W3C//DTD SVG 1.1//EN" "http://www.w3.org/Graphics/SVG/1.1/DTD/svg11.dtd">
<svg version="1.1" id="Layer_1" xmlns="http://www.w3.org/2000/svg" xmlns:xlink="http://www.w3.org/1999/xlink" x="0px" y="0px"
	 width="255.292px" height="63.078px" viewBox="0 0 255.292 63.078" enable-background="new 0 0 255.292 63.078"
	 xml:space="preserve">
<g>
	<g>
		<path fill="#010101" d="M33.821,23.412c-0.86,4.889-2.07,8.303-3.629,10.248c-2.049,2.592-5.368,3.887-9.957,3.887h-3.372
			l-4.29,24.383H0L10.693,1.148h12.645c3.043,0,5.328,0.191,6.854,0.574c1.524,0.383,2.781,1.223,3.771,2.518
			c0.989,1.297,1.576,2.754,1.76,4.373c0.183,1.621-0.14,4.785-0.969,9.498L33.821,23.412z M23.626,21.467l0.855-4.857
			c0.373-2.121,0.368-3.49-0.015-4.109c-0.383-0.617-1.395-0.928-3.033-0.928l-2.72,15.461h0.913c1.217,0,2.095-0.396,2.633-1.193
			C22.797,25.045,23.253,23.588,23.626,21.467z"/>
		<path fill="#010101" d="M58.268,61.93H45.313l1.289-10.955h-4.601L39.379,61.93H26.517L43.603,1.148h18.194L58.268,61.93z
			 M48.269,40.109c0.366-4.477,0.823-9.467,1.37-14.975c0.548-5.508,0.951-8.998,1.209-10.471c-0.825,2.828-2.118,7.51-3.876,14.047
			c-1.167,4.242-2.187,8.041-3.059,11.398H48.269z"/>
		<path fill="#010101" d="M88.109,61.93H76.448l3.87-21.998c0.383-2.178,0.402-3.621,0.06-4.328
			c-0.344-0.707-1.313-1.061-2.904-1.061L72.655,61.93H60.081L70.774,1.148h8.921c7.399,0,11.997,0.617,13.793,1.855
			c2.962,2.062,3.765,6.949,2.407,14.664c-0.809,4.594-1.723,7.658-2.74,9.189c-1.211,1.826-3.328,2.945-6.351,3.355
			c2.82,1.004,4.5,2.506,5.038,4.506c0.422,1.592,0.245,4.596-0.532,9.012L88.109,61.93z M83.894,19.613l0.591-3.357
			c0.28-1.592,0.312-2.709,0.099-3.357c-0.313-0.885-1.149-1.326-2.506-1.326h-0.562l-2.363,13.43c1.639,0,2.74-0.338,3.305-1.016
			C83.021,23.309,83.5,21.852,83.894,19.613z"/>
		<path fill="#010101" d="M103.518,61.93H90.944l10.694-60.781h12.574L103.518,61.93z"/>
		<path fill="#010101" d="M134.083,46.912c-0.611,3.475-1.25,5.963-1.91,7.465c-0.664,1.502-1.576,2.9-2.741,4.197
			c-1.165,1.295-2.639,2.223-4.423,2.781c-1.784,0.561-3.848,0.84-6.188,0.84c-2.529,0-4.562-0.295-6.097-0.883
			c-1.537-0.588-2.66-1.592-3.37-3.004c-0.712-1.414-1.122-3.078-1.229-4.992c-0.109-1.912,0.206-4.961,0.941-9.145l0.404-2.297
			h10.537l-0.995,5.654c-0.363,2.062-0.506,3.477-0.43,4.24c0.076,0.768,0.559,1.15,1.449,1.15c1.498,0,2.538-1.648,3.118-4.949
			c0.373-2.119,0.559-3.709,0.558-4.77c-0.001-1.061-0.366-2.178-1.095-3.357c-3.662-3.945-6.141-6.891-7.438-8.834
			c-2.194-3.238-2.736-8.01-1.627-14.312c0.394-2.238,0.841-4.182,1.342-5.832c0.5-1.646,1.208-3.209,2.123-4.682
			c1.278-1.943,2.823-3.27,4.633-3.977c1.811-0.705,4.121-1.059,6.93-1.059c2.716,0,4.821,0.207,6.319,0.617
			c1.496,0.414,2.635,1.326,3.416,2.74c0.781,1.412,1.145,3.211,1.09,5.389c-0.041,1.295-0.367,3.682-0.979,7.156l-0.14,0.795
			h-10.467l0.482-2.738c0.28-1.592,0.427-2.562,0.443-2.916c0.051-1.354-0.416-2.033-1.399-2.033c-1.359,0-2.317,1.592-2.877,4.771
			c-0.435,2.475-0.43,4.24,0.016,5.301s2.074,2.916,4.887,5.566c3.098,2.887,4.924,5.949,5.479,9.188
			C135.29,37.518,135.036,41.494,134.083,46.912z"/>
		<path fill="#010101" d="M172.167,15.812c-0.569,3.24-1.704,6.627-3.402,10.16c-1.398,2.887-3.611,6.686-6.642,11.396
			c-3.03,4.713-6.083,9.426-9.16,14.137h11.872L163,61.93h-23.885l1.523-8.658c4.729-7.715,7.955-13.016,9.682-15.902
			c2.042-3.355,4.414-7.391,7.117-12.104c1.787-3.238,2.967-5.549,3.539-6.934c0.57-1.385,0.986-2.812,1.244-4.285
			c0.55-3.121,0.004-4.684-1.635-4.684c-0.938,0-1.673,0.59-2.207,1.768c-0.535,1.18-0.988,2.828-1.362,4.947l-0.995,5.654h-9.834
			l0.357-2.031c0.207-1.178,0.42-2.326,0.641-3.445s0.505-2.268,0.854-3.445c1.202-4.182,3.004-7.363,5.4-9.543
			C155.836,1.09,158.674,0,161.954,0c1.686,0,3.146,0.221,4.379,0.662c1.232,0.441,2.324,1.164,3.272,2.164
			C172.297,5.889,173.151,10.219,172.167,15.812z"/>
		<path fill="#010101" d="M194.87,43.73c-0.653,3.711-1.365,6.686-2.133,8.924c-0.77,2.238-1.859,4.182-3.273,5.83
			c-2.6,3.064-5.961,4.594-10.08,4.594c-4.355,0-7.463-1.104-9.322-3.312s-2.406-5.492-1.639-9.85l1.079-7.334l0.372-2.119h10.818
			l-1.678,9.541c-0.436,2.473-0.045,3.711,1.174,3.711c0.936,0,1.613-0.59,2.031-1.768s0.912-3.387,1.482-6.627l0.746-4.24
			c0.621-3.533,0.523-5.771-0.295-6.713c-0.625-0.707-2.226-1.061-4.801-1.061l1.555-8.836h0.632c2.622,0,4.308-0.322,5.054-0.971
			s1.389-2.504,1.928-5.566l0.605-3.445c0.32-1.824,0.458-3.004,0.411-3.533c-0.095-1.061-0.563-1.592-1.406-1.592
			c-1.312,0-2.179,1.209-2.604,3.623l-0.916,5.213h-10.818l0.605-3.445c0.995-5.654,2.601-9.527,4.818-11.619
			C181.433,1.047,184.836,0,189.426,0c4.309,0,7.279,1.281,8.913,3.842c1.632,2.562,1.958,6.643,0.974,12.236
			c-0.611,3.477-1.519,6.096-2.719,7.863c-0.826,1.236-2.088,2.416-3.783,3.533c1.957,1.121,3.029,2.754,3.213,4.904
			S195.823,38.312,194.87,43.73z"/>
		<path fill="#010101" d="M202.862,61.93h-9.133l2.176-12.367h9.133L202.862,61.93z"/>
		<path fill="#010101" d="M217.776,61.93h-12.013l6.684-37.988c0.384-2.178,0.292-3.725-0.272-4.639
			c-0.566-0.912-1.879-1.369-3.939-1.369h-1.756l1.244-7.068c2.793-0.707,5.324-1.912,7.591-3.621
			c1.944-1.473,3.964-3.504,6.06-6.096h7.096L217.776,61.93z"/>
		<path fill="#010101" d="M250.334,42.053c-0.673,3.828-1.096,6.096-1.266,6.803c-0.848,3.475-2.208,6.42-4.084,8.834
			c-2.787,3.594-6.334,5.389-10.643,5.389c-2.576,0-4.613-0.396-6.111-1.191c-1.5-0.795-2.683-2.193-3.547-4.197
			c-0.867-2.002-1.26-4.02-1.184-6.051c0.076-2.033,0.446-4.934,1.109-8.703l3.746-21.291c0.705-4.006,1.424-7.229,2.158-9.674
			c0.734-2.443,1.748-4.551,3.043-6.316c1.295-1.768,2.918-3.15,4.875-4.152C240.387,0.5,242.465,0,244.668,0
			c2.528,0,4.658,0.604,6.389,1.811c1.73,1.209,2.902,2.871,3.513,4.992c0.615,1.826,0.837,3.754,0.668,5.785
			c-0.171,2.033-0.607,5.051-1.312,9.057L250.334,42.053z M238.694,46.734l5.299-30.125c0.125-0.707,0.219-1.238,0.281-1.592
			c0.352-2,0.5-3.445,0.445-4.328c-0.056-0.883-0.505-1.326-1.348-1.326c-0.75,0-1.352,0.43-1.807,1.281
			c-0.455,0.855-0.821,2.076-1.102,3.666l-5.626,31.982c-0.259,1.473-0.519,2.945-0.777,4.418c-0.212,2.002,0.268,3.004,1.438,3.004
			c0.889,0,1.52-0.457,1.892-1.371C237.762,51.432,238.196,49.562,238.694,46.734z"/>
	</g>
</g>
</svg>
