<?xml version="1.0" encoding="utf-8"?>
<!-- Generator: Adobe Illustrator 15.0.0, SVG Export Plug-In . SVG Version: 6.00 Build 0)  -->
<!DOCTYPE svg PUBLIC "-//W3C//DTD SVG 1.1//EN" "http://www.w3.org/Graphics/SVG/1.1/DTD/svg11.dtd">
<svg version="1.1" id="Layer_1" xmlns="http://www.w3.org/2000/svg" xmlns:xlink="http://www.w3.org/1999/xlink" x="0px" y="0px"
	 width="381.619px" height="63.08px" viewBox="0 0 381.619 63.08" enable-background="new 0 0 381.619 63.08" xml:space="preserve">
<g>
	<g>
		<path fill="#010101" d="M33.664,1.148L17.21,61.932H0L4.161,1.148h11.942c-0.111,4.891-0.524,11.029-1.238,18.422
			c-0.716,7.391-1.834,15.416-3.358,24.074c1.482-8.424,3.121-16.08,4.919-22.971c1.797-6.891,3.539-13.398,5.227-19.525H33.664z"/>
		<path fill="#010101" d="M53.014,61.932H40.06l1.289-10.955h-4.601l-2.622,10.955H21.263L38.349,1.148h18.194L53.014,61.932z
			 M43.015,40.109c0.366-4.475,0.823-9.467,1.37-14.975c0.547-5.506,0.95-8.996,1.209-10.469c-0.825,2.826-2.118,7.51-3.876,14.047
			c-1.167,4.24-2.187,8.039-3.059,11.396H43.015z"/>
		<path fill="#010101" d="M85.191,61.932H74.443l-4.252-28.537l-5.021,28.537H54.704L65.398,1.148h10.677l4.369,28.271l4.974-28.271
			h10.467L85.191,61.932z"/>
		<path fill="#010101" d="M120.353,39.934c-0.124,0.707-0.217,1.236-0.28,1.59c-0.104,0.59-0.181,1.031-0.233,1.324
			c-0.581,3.301-1.224,5.891-1.93,7.775c-2.669,7.717-7.891,11.572-15.664,11.572c-2.81,0-5.017-0.234-6.62-0.705
			s-2.916-1.531-3.936-3.182c-1.251-1.943-1.853-4.18-1.805-6.713c0.047-2.533,0.512-6.303,1.393-11.309l3.87-22
			c1.057-6.006,3.084-10.408,6.082-13.207c2.997-2.797,6.885-4.195,11.662-4.195c2.856,0,5.074,0.309,6.651,0.928
			c1.577,0.617,2.84,1.824,3.789,3.621c0.948,1.797,1.397,4.168,1.348,7.111c-0.046,2.121-0.425,5.213-1.14,9.277l-0.56,3.18
			h-11.942l1.399-7.951c0.114-0.646,0.202-1.148,0.264-1.502c0.311-1.766,0.468-2.797,0.474-3.092
			c0.024-1.471-0.525-2.209-1.649-2.209c-1.592,0-2.611,1.268-3.057,3.799l-6.015,34.191c-0.549,3.121-0.051,4.682,1.495,4.682
			c0.983,0,1.68-0.5,2.091-1.502c0.41-1,0.885-3.033,1.423-6.096l1.352-7.686h11.942L120.353,39.934z"/>
		<path fill="#010101" d="M151.908,36.664c-0.974,5.537-1.731,9.439-2.271,11.707s-1.225,4.166-2.056,5.697
			c-1.528,2.828-3.516,4.875-5.962,6.141c-2.448,1.268-5.333,1.898-8.659,1.898s-5.989-0.631-7.99-1.898
			c-2.002-1.266-3.293-3.312-3.872-6.141c-0.278-1.354-0.267-3.342,0.03-5.963c0.296-2.621,0.886-6.436,1.767-11.441l1.818-10.336
			c0.974-5.535,1.731-9.438,2.271-11.707c0.539-2.266,1.225-4.166,2.056-5.697c1.563-2.768,3.526-4.74,5.888-5.92
			c2.361-1.178,5.274-1.768,8.741-1.768c3.465,0,6.162,0.576,8.091,1.725c1.929,1.148,3.183,3.135,3.763,5.963
			c0.266,1.412,0.25,3.432-0.046,6.051c-0.298,2.623-0.881,6.406-1.751,11.354L151.908,36.664z M137.53,46.912l5.3-30.125
			c0.114-0.648,0.197-1.119,0.249-1.414c0.332-1.885,0.464-3.238,0.399-4.064c-0.066-0.824-0.52-1.236-1.363-1.236
			c-0.843,0-1.462,0.457-1.856,1.369c-0.396,0.914-0.826,2.695-1.292,5.346l-5.486,31.186c-0.28,1.59-0.381,2.826-0.302,3.711
			c0.078,0.883,0.516,1.324,1.312,1.324C135.802,53.008,136.815,50.977,137.53,46.912z"/>
		<path fill="#010101" d="M182.258,44.527c-0.518,2.945-1.11,5.375-1.774,7.289c-0.665,1.914-1.691,3.754-3.079,5.521
			c-1.389,1.766-3.069,3.004-5.043,3.711c-1.975,0.705-4.343,1.059-7.106,1.059c-3.138,0-5.727-0.455-7.767-1.369
			c-2.042-0.912-3.424-2.369-4.148-4.373c-0.542-1.707-0.747-3.607-0.613-5.697c0.133-2.09,0.537-5.051,1.211-8.879l7.15-40.641
			h12.574l-8.254,46.912c-0.321,1.826-0.453,3.107-0.395,3.844c0.057,0.736,0.508,1.104,1.351,1.104
			c0.608,0,1.126-0.354,1.556-1.061c0.429-0.705,0.855-2.266,1.28-4.682l8.113-46.117h12.575L182.258,44.527z"/>
		<path fill="#010101" d="M221.283,1.148l-16.455,60.783h-17.21l4.161-60.783h11.941c-0.111,4.891-0.524,11.029-1.238,18.422
			c-0.716,7.391-1.834,15.416-3.357,24.074c1.481-8.424,3.121-16.08,4.919-22.971s3.54-13.398,5.227-19.525H221.283z"/>
		<path fill="#010101" d="M234.132,61.932h-21.705l10.693-60.783h20.934l-2.13,12.104h-8.359l-2.036,11.574h7.867l-2.035,11.572
			h-7.868l-2.362,13.43h9.132L234.132,61.932z"/>
		<path fill="#010101" d="M264.451,61.932H252.79l3.87-21.998c0.383-2.18,0.402-3.623,0.059-4.33s-1.312-1.059-2.904-1.059
			l-4.818,27.387h-12.574l10.693-60.783h8.922c7.399,0,11.997,0.619,13.793,1.855c2.963,2.062,3.766,6.951,2.408,14.666
			c-0.809,4.594-1.723,7.656-2.74,9.188c-1.212,1.826-3.328,2.945-6.352,3.357c2.82,1.002,4.5,2.504,5.038,4.506
			c0.423,1.59,0.245,4.594-0.532,9.012L264.451,61.932z M260.234,19.613l0.592-3.357c0.279-1.59,0.312-2.707,0.099-3.357
			c-0.313-0.883-1.149-1.324-2.507-1.324h-0.562l-2.362,13.428c1.639,0,2.74-0.338,3.305-1.016
			C259.361,23.311,259.841,21.854,260.234,19.613z"/>
		<path fill="#010101" d="M293.894,61.932h-12.013l6.683-37.99c0.385-2.178,0.293-3.723-0.271-4.637
			c-0.566-0.912-1.879-1.369-3.939-1.369h-1.756l1.243-7.068c2.794-0.707,5.324-1.914,7.592-3.623
			c1.944-1.471,3.964-3.502,6.06-6.096h7.096L293.894,61.932z"/>
		<path fill="#010101" d="M315.205,61.932h-12.014l6.684-37.99c0.384-2.178,0.293-3.723-0.271-4.637
			c-0.566-0.912-1.879-1.369-3.939-1.369h-1.756l1.243-7.068c2.794-0.707,5.323-1.914,7.591-3.623
			c1.945-1.471,3.965-3.502,6.061-6.096h7.096L315.205,61.932z"/>
		<path fill="#010101" d="M328.108,61.932h-9.132l2.176-12.369h9.133L328.108,61.932z"/>
		<path fill="#010101" d="M344.101,61.932h-12.012l6.684-37.99c0.383-2.178,0.291-3.723-0.273-4.637
			c-0.566-0.912-1.879-1.369-3.938-1.369h-1.757l1.244-7.068c2.793-0.707,5.324-1.914,7.592-3.623
			c1.944-1.471,3.963-3.502,6.06-6.096h7.095L344.101,61.932z"/>
		<path fill="#010101" d="M376.661,42.053c-0.673,3.83-1.097,6.098-1.267,6.803c-0.847,3.477-2.207,6.42-4.084,8.836
			c-2.786,3.592-6.334,5.389-10.642,5.389c-2.576,0-4.614-0.398-6.112-1.193c-1.5-0.795-2.682-2.193-3.547-4.195
			c-0.866-2.002-1.26-4.02-1.184-6.053c0.076-2.031,0.447-4.932,1.109-8.701l3.746-21.293c0.705-4.004,1.424-7.229,2.158-9.674
			c0.734-2.443,1.75-4.549,3.044-6.316s2.919-3.15,4.875-4.152c1.955-1,4.033-1.502,6.235-1.502c2.529,0,4.658,0.605,6.391,1.812
			c1.729,1.207,2.9,2.869,3.512,4.99c0.615,1.826,0.838,3.756,0.668,5.787c-0.172,2.031-0.607,5.051-1.312,9.055L376.661,42.053z
			 M365.019,46.736l5.301-30.127c0.123-0.707,0.217-1.236,0.279-1.59c0.352-2.002,0.5-3.445,0.445-4.33
			c-0.055-0.883-0.504-1.324-1.348-1.324c-0.75,0-1.352,0.428-1.806,1.281c-0.456,0.854-0.821,2.076-1.102,3.666l-5.626,31.98
			c-0.26,1.475-0.52,2.947-0.777,4.418c-0.213,2.004,0.268,3.004,1.438,3.004c0.89,0,1.521-0.455,1.893-1.369
			C364.087,51.434,364.521,49.562,365.019,46.736z"/>
	</g>
</g>
</svg>
